<svg width="183" height="207" viewBox="0 0 183 207" fill="none" xmlns="http://www.w3.org/2000/svg">
<path d="M17.5474 195.754L16.4153 199.632C16.2518 200.179 16.17 200.582 16.17 200.84C16.17 201.079 16.2675 201.27 16.4625 201.415C16.6574 201.56 17.0631 201.638 17.6795 201.651L17.5474 202H11.3868L11.5 201.651C12.1164 201.651 12.5661 201.531 12.8491 201.292C13.1384 201.053 13.4026 200.519 13.6416 199.689L16.019 191.481C16.1511 191.022 16.2172 190.66 16.2172 190.396C16.2172 190.144 16.1354 189.952 15.9719 189.82C15.8083 189.688 15.4278 189.6 14.8303 189.556L14.9247 189.207H20.2268C21.7426 189.207 22.8087 189.471 23.425 189.999C24.0414 190.528 24.3496 191.207 24.3496 192.037C24.3496 192.912 23.9911 193.701 23.2741 194.405C22.8212 194.846 22.0193 195.226 20.8683 195.547L22.0193 199.424C22.3275 200.462 22.5948 201.088 22.8212 201.302C23.054 201.516 23.4376 201.632 23.9722 201.651V202H19.9909L18.1795 195.754L17.8682 195.773C17.799 195.773 17.6921 195.767 17.5474 195.754ZM17.6795 195.188C17.8996 195.201 18.0852 195.207 18.2361 195.207C19.1544 195.207 19.9092 194.893 20.5004 194.264C21.0916 193.635 21.3872 192.811 21.3872 191.792C21.3872 191.188 21.23 190.729 20.9155 190.415C20.601 190.1 20.1859 189.943 19.6702 189.943C19.5444 189.943 19.3966 189.946 19.2267 189.952L17.6795 195.188ZM34.1425 193.386L32.3122 199.66L32.1235 200.424C32.1047 200.519 32.0952 200.588 32.0952 200.632C32.0952 200.707 32.1204 200.774 32.1707 200.83C32.2273 200.887 32.2839 200.915 32.3405 200.915C32.4726 200.915 32.655 200.814 32.8877 200.613C32.9821 200.531 33.2085 200.242 33.567 199.745L33.8972 199.915C33.4506 200.733 32.9726 201.33 32.4632 201.708C31.96 202.079 31.416 202.264 30.831 202.264C30.4725 202.264 30.1989 202.173 30.0102 201.991C29.8215 201.802 29.7272 201.566 29.7272 201.283C29.7272 201.038 29.8278 200.582 30.0291 199.915L30.2555 199.151C29.5259 200.402 28.8246 201.289 28.1517 201.811C27.7617 202.113 27.3466 202.264 26.9063 202.264C26.3277 202.264 25.9094 202.028 25.6516 201.557C25.3937 201.079 25.2647 200.541 25.2647 199.943C25.2647 199.056 25.5352 198.041 26.0761 196.896C26.617 195.745 27.3277 194.82 28.2083 194.122C28.9316 193.544 29.6108 193.254 30.2461 193.254C30.5983 193.254 30.8813 193.358 31.0952 193.566C31.309 193.767 31.4663 194.138 31.5669 194.679L31.9065 193.518L34.1425 193.386ZM31.1235 195.179C31.1235 194.669 31.0449 194.302 30.8876 194.075C30.7744 193.918 30.6203 193.839 30.4254 193.839C30.2304 193.839 30.0291 193.934 29.8215 194.122C29.4001 194.512 28.9442 195.305 28.4536 196.5C27.9693 197.688 27.7271 198.717 27.7271 199.585C27.7271 199.918 27.7806 200.16 27.8875 200.311C28.0007 200.456 28.1234 200.528 28.2554 200.528C28.5385 200.528 28.8246 200.365 29.114 200.038C29.5291 199.572 29.9033 199.003 30.2367 198.33C30.8279 197.148 31.1235 196.097 31.1235 195.179ZM38.8974 188.915C39.2874 188.915 39.6176 189.053 39.888 189.33C40.1585 189.6 40.2937 189.93 40.2937 190.32C40.2937 190.704 40.1553 191.034 39.8786 191.311C39.6082 191.581 39.2811 191.717 38.8974 191.717C38.5075 191.717 38.1741 191.581 37.8974 191.311C37.6269 191.034 37.4917 190.704 37.4917 190.32C37.4917 189.93 37.6269 189.6 37.8974 189.33C38.1741 189.053 38.5075 188.915 38.8974 188.915ZM39.6899 193.254L37.6804 200.679C37.2653 202.195 36.7998 203.393 36.2841 204.274C35.9256 204.89 35.4444 205.359 34.8406 205.679C34.2431 206.006 33.6268 206.17 32.9915 206.17C32.4632 206.17 32.0732 206.066 31.8216 205.859C31.5638 205.651 31.4348 205.415 31.4348 205.151C31.4348 204.887 31.5418 204.651 31.7556 204.444C31.9632 204.242 32.2305 204.142 32.5575 204.142C32.8091 204.142 33.0072 204.208 33.1519 204.34C33.2965 204.478 33.3689 204.642 33.3689 204.83C33.3689 205.013 33.284 205.195 33.1141 205.378C33.045 205.453 33.0104 205.51 33.0104 205.547C33.0104 205.591 33.0324 205.629 33.0764 205.661C33.1141 205.698 33.1739 205.717 33.2557 205.717C33.5324 205.717 33.7714 205.56 33.9727 205.245C34.111 205.038 34.3563 204.258 34.7086 202.906L36.6332 195.641C36.7715 195.119 36.8407 194.792 36.8407 194.66C36.8407 194.534 36.7715 194.415 36.6332 194.302C36.4948 194.182 36.3124 194.122 36.086 194.122C36.0168 194.122 35.935 194.125 35.8407 194.132L35.9445 193.773L39.1239 193.254H39.6899ZM56.0303 188.915L54.9642 193.254H54.6528C54.5837 192.575 54.461 192.031 54.2849 191.622C54.0207 191.031 53.6685 190.575 53.2283 190.254C52.7943 189.933 52.3226 189.773 51.8131 189.773C51.3225 189.773 50.8917 189.962 50.5206 190.339C50.1558 190.71 49.9734 191.132 49.9734 191.603C49.9734 192.069 50.0992 192.528 50.3508 192.981C50.6086 193.427 51.2124 194.103 52.1622 195.009C52.9232 195.732 53.4327 196.355 53.6905 196.877C53.9547 197.399 54.0868 197.965 54.0868 198.575C54.0868 199.261 53.9044 199.893 53.5396 200.472C53.1748 201.05 52.6433 201.5 51.9452 201.821C51.2533 202.135 50.4671 202.292 49.5866 202.292C49.0457 202.292 48.3633 202.211 47.5393 202.047C46.7217 201.89 46.1776 201.811 45.9072 201.811C45.6933 201.811 45.5015 201.846 45.3317 201.915C45.1619 201.978 44.9512 202.104 44.6996 202.292H44.3316L45.4732 197.415H45.8317C45.9135 198.27 46.0864 199 46.3506 199.604C46.6148 200.201 46.9921 200.67 47.4827 201.009C47.9733 201.343 48.5331 201.509 49.162 201.509C49.7847 201.509 50.3036 201.305 50.7187 200.896C51.1401 200.481 51.3508 199.997 51.3508 199.443C51.3508 198.972 51.2313 198.519 50.9923 198.085C50.7596 197.651 50.2218 197.019 49.379 196.188C48.5425 195.358 47.9639 194.616 47.6431 193.962C47.4104 193.478 47.294 192.962 47.294 192.415C47.294 191.465 47.6683 190.644 48.4167 189.952C49.1652 189.26 50.1432 188.915 51.3508 188.915C51.898 188.915 52.6182 189.037 53.5113 189.282C54.0333 189.427 54.4013 189.499 54.6151 189.499C54.7975 189.499 54.961 189.462 55.1057 189.386C55.2504 189.304 55.4202 189.147 55.6152 188.915H56.0303ZM63.8231 193.254L64.5212 199.877C65.4709 198.94 66.0905 198.201 66.3798 197.66C66.6691 197.113 66.8138 196.657 66.8138 196.292C66.8138 196.154 66.7823 196.015 66.7194 195.877C66.6565 195.739 66.5307 195.547 66.342 195.302C66.1534 195.056 66.0464 194.902 66.0213 194.839C65.9773 194.72 65.9552 194.575 65.9552 194.405C65.9552 194.085 66.0653 193.814 66.2854 193.594C66.5056 193.368 66.7823 193.254 67.1157 193.254C67.449 193.254 67.7132 193.368 67.9082 193.594C68.1849 193.921 68.3233 194.298 68.3233 194.726C68.3233 195.424 67.9899 196.339 67.3232 197.471C66.6565 198.604 65.1344 200.201 62.757 202.264H62.3796L61.7947 196.471L57.719 202.264H57.3133C57.4077 200.516 57.4549 198.88 57.4549 197.358C57.4549 196.365 57.4014 195.648 57.2945 195.207C57.2316 194.949 57.1184 194.754 56.9548 194.622C56.7976 194.49 56.6246 194.424 56.4359 194.424C56.3353 194.424 56.2064 194.437 56.0491 194.462V194.113L59.2946 193.254C59.4707 193.745 59.5902 194.207 59.6531 194.641C59.76 195.308 59.8135 196.085 59.8135 196.971C59.8135 197.286 59.8009 197.764 59.7757 198.405L63.4268 193.254H63.8231ZM72.7386 188.915C73.1285 188.915 73.4556 189.05 73.7197 189.32C73.9902 189.591 74.1254 189.918 74.1254 190.301C74.1254 190.685 73.9902 191.012 73.7197 191.283C73.4493 191.553 73.1222 191.688 72.7386 191.688C72.3612 191.688 72.0373 191.553 71.7668 191.283C71.4964 191.012 71.3611 190.685 71.3611 190.301C71.3611 189.918 71.4932 189.591 71.7574 189.32C72.0278 189.05 72.3549 188.915 72.7386 188.915ZM73.3235 193.254L71.3894 199.962C71.2825 200.346 71.2291 200.597 71.2291 200.717C71.2291 200.786 71.2574 200.852 71.314 200.915C71.3706 200.972 71.4303 201 71.4932 201C71.6001 201 71.7071 200.953 71.814 200.858C72.097 200.626 72.4367 200.204 72.8329 199.594L73.1537 199.783C72.2039 201.437 71.1945 202.264 70.1252 202.264C69.7164 202.264 69.3894 202.151 69.1441 201.925C68.9051 201.692 68.7856 201.399 68.7856 201.047C68.7856 200.814 68.839 200.519 68.9459 200.16L70.2573 195.651C70.3831 195.217 70.446 194.89 70.446 194.669C70.446 194.531 70.3863 194.408 70.2668 194.302C70.1472 194.195 69.9837 194.141 69.7762 194.141C69.6818 194.141 69.5686 194.144 69.4365 194.151L69.5592 193.773L72.7574 193.254H73.3235ZM78.9086 193.254L77.701 197.311C78.5124 196.066 79.1036 195.226 79.4747 194.792C80.0219 194.157 80.4716 193.742 80.8238 193.547C81.1823 193.352 81.5408 193.254 81.8993 193.254C82.3082 193.254 82.6038 193.377 82.7862 193.622C82.9686 193.868 83.0598 194.138 83.0598 194.434C83.0598 194.742 82.9749 195.195 82.805 195.792L82.3805 197.311C83.1981 196.053 83.7862 195.217 84.1447 194.802C84.6982 194.16 85.1794 193.726 85.5882 193.5C85.8712 193.336 86.1731 193.254 86.4939 193.254C86.8272 193.254 87.104 193.368 87.3241 193.594C87.5505 193.814 87.6638 194.103 87.6638 194.462C87.6638 194.864 87.5694 195.386 87.3807 196.028L86.3335 199.547C86.1763 200.069 86.0976 200.406 86.0976 200.557C86.0976 200.607 86.1165 200.654 86.1543 200.698C86.1983 200.742 86.2455 200.764 86.2958 200.764C86.365 200.764 86.4247 200.742 86.475 200.698C86.7014 200.516 86.9405 200.248 87.192 199.896C87.2486 199.821 87.3335 199.704 87.4468 199.547L87.7675 199.755C87.3335 200.566 86.8555 201.16 86.3335 201.538C85.8178 201.915 85.3397 202.104 84.8995 202.104C84.5158 202.104 84.2076 202 83.9749 201.792C83.7422 201.579 83.6258 201.33 83.6258 201.047C83.6258 200.777 83.7045 200.368 83.8617 199.821L84.9278 196.141C85.0724 195.632 85.1448 195.314 85.1448 195.188C85.1448 195.144 85.1228 195.103 85.0787 195.066C85.0347 195.022 84.9907 195 84.9467 195C84.8649 195 84.7831 195.019 84.7014 195.056C84.5819 195.119 84.3963 195.283 84.1447 195.547C83.8994 195.811 83.5441 196.286 83.0786 196.971C82.6132 197.651 82.2893 198.182 82.1069 198.566C81.9308 198.95 81.7547 199.446 81.5786 200.057L81.0031 202H78.6162L80.3804 195.839C80.4748 195.506 80.5219 195.276 80.5219 195.151C80.5219 195.107 80.4999 195.066 80.4559 195.028C80.4181 194.99 80.3773 194.971 80.3332 194.971C80.1005 194.971 79.7326 195.276 79.2294 195.887C78.4621 196.83 77.7639 197.965 77.135 199.292L76.3708 202H73.965L75.7387 195.934C75.9148 195.336 76.0029 194.912 76.0029 194.66C76.0029 194.559 75.9777 194.475 75.9274 194.405C75.8771 194.33 75.7953 194.273 75.6821 194.236C75.5689 194.191 75.3519 194.169 75.0311 194.169L75.1255 193.811L78.3426 193.254H78.9086ZM93.9471 193.254L92.7395 197.311C93.5508 196.066 94.142 195.226 94.5131 194.792C95.0603 194.157 95.51 193.742 95.8622 193.547C96.2207 193.352 96.5792 193.254 96.9378 193.254C97.3466 193.254 97.6422 193.377 97.8246 193.622C98.007 193.868 98.0982 194.138 98.0982 194.434C98.0982 194.742 98.0133 195.195 97.8435 195.792L97.4189 197.311C98.2366 196.053 98.8246 195.217 99.1831 194.802C99.7366 194.16 100.218 193.726 100.627 193.5C100.91 193.336 101.212 193.254 101.532 193.254C101.866 193.254 102.142 193.368 102.363 193.594C102.589 193.814 102.702 194.103 102.702 194.462C102.702 194.864 102.608 195.386 102.419 196.028L101.372 199.547C101.215 200.069 101.136 200.406 101.136 200.557C101.136 200.607 101.155 200.654 101.193 200.698C101.237 200.742 101.284 200.764 101.334 200.764C101.403 200.764 101.463 200.742 101.513 200.698C101.74 200.516 101.979 200.248 102.23 199.896C102.287 199.821 102.372 199.704 102.485 199.547L102.806 199.755C102.372 200.566 101.894 201.16 101.372 201.538C100.856 201.915 100.378 202.104 99.9379 202.104C99.5542 202.104 99.246 202 99.0133 201.792C98.7806 201.579 98.6642 201.33 98.6642 201.047C98.6642 200.777 98.7429 200.368 98.9001 199.821L99.9662 196.141C100.111 195.632 100.183 195.314 100.183 195.188C100.183 195.144 100.161 195.103 100.117 195.066C100.073 195.022 100.029 195 99.9851 195C99.9033 195 99.8215 195.019 99.7398 195.056C99.6203 195.119 99.4347 195.283 99.1831 195.547C98.9378 195.811 98.5825 196.286 98.1171 196.971C97.6516 197.651 97.3277 198.182 97.1453 198.566C96.9692 198.95 96.7931 199.446 96.617 200.057L96.0415 202H93.6546L95.4188 195.839C95.5132 195.506 95.5603 195.276 95.5603 195.151C95.5603 195.107 95.5383 195.066 95.4943 195.028C95.4566 194.99 95.4157 194.971 95.3716 194.971C95.1389 194.971 94.771 195.276 94.2678 195.887C93.5005 196.83 92.8024 197.965 92.1734 199.292L91.4092 202H89.0034L90.7771 195.934C90.9532 195.336 91.0413 194.912 91.0413 194.66C91.0413 194.559 91.0161 194.475 90.9658 194.405C90.9155 194.33 90.8337 194.273 90.7205 194.236C90.6073 194.191 90.3903 194.169 90.0695 194.169L90.1639 193.811L93.381 193.254H93.9471ZM108.193 188.915C108.583 188.915 108.91 189.05 109.174 189.32C109.445 189.591 109.58 189.918 109.58 190.301C109.58 190.685 109.445 191.012 109.174 191.283C108.904 191.553 108.577 191.688 108.193 191.688C107.816 191.688 107.492 191.553 107.221 191.283C106.951 191.012 106.816 190.685 106.816 190.301C106.816 189.918 106.948 189.591 107.212 189.32C107.482 189.05 107.809 188.915 108.193 188.915ZM108.778 193.254L106.844 199.962C106.737 200.346 106.683 200.597 106.683 200.717C106.683 200.786 106.712 200.852 106.768 200.915C106.825 200.972 106.885 201 106.948 201C107.055 201 107.161 200.953 107.268 200.858C107.551 200.626 107.891 200.204 108.287 199.594L108.608 199.783C107.658 201.437 106.649 202.264 105.58 202.264C105.171 202.264 104.844 202.151 104.598 201.925C104.359 201.692 104.24 201.399 104.24 201.047C104.24 200.814 104.293 200.519 104.4 200.16L105.712 195.651C105.838 195.217 105.9 194.89 105.9 194.669C105.9 194.531 105.841 194.408 105.721 194.302C105.602 194.195 105.438 194.141 105.231 194.141C105.136 194.141 105.023 194.144 104.891 194.151L105.014 193.773L108.212 193.254H108.778ZM114.391 193.254L113.221 197.302C114.008 196.119 114.596 195.311 114.986 194.877C115.558 194.248 116.052 193.82 116.467 193.594C116.882 193.368 117.272 193.254 117.637 193.254C117.964 193.254 118.244 193.377 118.476 193.622C118.709 193.861 118.826 194.176 118.826 194.566C118.826 194.918 118.75 195.346 118.599 195.849L117.391 199.877C117.291 200.229 117.241 200.459 117.241 200.566C117.241 200.629 117.263 200.685 117.307 200.736C117.357 200.786 117.407 200.811 117.458 200.811C117.52 200.811 117.586 200.786 117.656 200.736C117.876 200.553 118.099 200.296 118.325 199.962C118.382 199.874 118.473 199.742 118.599 199.566L118.958 199.783C118.033 201.336 117.061 202.113 116.042 202.113C115.652 202.113 115.347 202.013 115.127 201.811C114.907 201.61 114.797 201.358 114.797 201.057C114.797 200.792 114.873 200.399 115.023 199.877L116.203 195.849C116.285 195.585 116.325 195.39 116.325 195.264C116.325 195.195 116.297 195.135 116.24 195.085C116.184 195.028 116.118 195 116.042 195C115.803 195 115.514 195.163 115.174 195.49C114.306 196.321 113.467 197.556 112.655 199.198L111.882 202H109.476L111.24 195.943C111.41 195.346 111.495 194.921 111.495 194.669C111.495 194.563 111.47 194.475 111.42 194.405C111.369 194.33 111.287 194.273 111.174 194.236C111.061 194.191 110.847 194.169 110.533 194.169L110.636 193.811L113.816 193.254H114.391ZM127.458 193.83H129.968L129.666 194.868H128.364C128.565 195.239 128.666 195.591 128.666 195.924C128.666 196.497 128.508 197.025 128.194 197.509C127.886 197.994 127.427 198.38 126.816 198.67C126.213 198.959 125.54 199.104 124.797 199.104C124.603 199.104 124.386 199.091 124.147 199.066C123.914 199.034 123.659 198.994 123.382 198.943C122.967 199.157 122.706 199.327 122.599 199.453C122.524 199.541 122.486 199.632 122.486 199.726C122.486 199.84 122.533 199.937 122.628 200.019C122.791 200.163 123.033 200.27 123.354 200.34C124.637 200.616 125.483 200.84 125.892 201.009C126.452 201.242 126.873 201.541 127.156 201.906C127.445 202.27 127.59 202.711 127.59 203.226C127.59 204.013 127.228 204.698 126.505 205.283C125.782 205.874 124.662 206.17 123.146 206.17C121.618 206.17 120.492 205.918 119.769 205.415C119.247 205.05 118.986 204.616 118.986 204.113C118.986 203.73 119.159 203.374 119.505 203.047C119.844 202.72 120.577 202.431 121.703 202.179C121.319 201.965 121.061 201.77 120.929 201.594C120.747 201.355 120.656 201.107 120.656 200.849C120.656 200.428 120.822 200.057 121.156 199.736C121.495 199.415 122.062 199.097 122.854 198.783C122.238 198.538 121.791 198.223 121.514 197.839C121.244 197.449 121.109 196.997 121.109 196.481C121.109 195.934 121.272 195.415 121.599 194.924C121.933 194.427 122.42 194.025 123.062 193.717C123.709 193.408 124.452 193.254 125.288 193.254C125.823 193.254 126.298 193.314 126.713 193.434C126.927 193.496 127.175 193.629 127.458 193.83ZM125.486 193.717C125.178 193.717 124.917 193.817 124.703 194.019C124.364 194.327 124.065 194.842 123.807 195.566C123.555 196.289 123.429 196.975 123.429 197.622C123.429 197.931 123.518 198.176 123.694 198.358C123.876 198.534 124.099 198.622 124.364 198.622C124.621 198.622 124.845 198.534 125.033 198.358C125.392 198.012 125.703 197.462 125.967 196.707C126.232 195.946 126.364 195.258 126.364 194.641C126.364 194.364 126.279 194.141 126.109 193.971C125.939 193.802 125.731 193.717 125.486 193.717ZM122.231 202.396C121.634 202.629 121.225 202.881 121.005 203.151C120.791 203.421 120.684 203.714 120.684 204.028C120.684 204.437 120.898 204.805 121.326 205.132C121.76 205.466 122.448 205.632 123.392 205.632C124.178 205.632 124.747 205.488 125.099 205.198C125.452 204.915 125.628 204.582 125.628 204.198C125.628 203.859 125.464 203.582 125.137 203.368C124.816 203.154 124.197 202.931 123.279 202.698C122.851 202.585 122.502 202.484 122.231 202.396ZM148.402 188.915L147.459 192.981H147.091C147.047 191.874 146.773 191.05 146.27 190.509C145.773 189.962 145.122 189.688 144.317 189.688C143.449 189.688 142.584 190.059 141.723 190.801C140.861 191.544 140.132 192.679 139.534 194.207C139.05 195.446 138.808 196.67 138.808 197.877C138.808 198.959 139.072 199.786 139.6 200.358C140.135 200.924 140.864 201.208 141.789 201.208C142.537 201.208 143.22 201.044 143.836 200.717C144.452 200.39 145.075 199.858 145.704 199.123H146.157C145.377 200.292 144.588 201.113 143.789 201.585C142.996 202.057 142.025 202.292 140.874 202.292C139.333 202.292 138.091 201.827 137.147 200.896C136.21 199.959 135.741 198.739 135.741 197.236C135.741 195.827 136.116 194.484 136.864 193.207C137.613 191.924 138.688 190.889 140.091 190.103C141.499 189.311 142.899 188.915 144.289 188.915C144.817 188.915 145.475 189.028 146.261 189.254C146.663 189.367 146.943 189.424 147.1 189.424C147.415 189.424 147.732 189.254 148.053 188.915H148.402ZM153.478 188.915L150.355 199.538C150.173 200.167 150.082 200.56 150.082 200.717C150.082 200.799 150.107 200.868 150.157 200.924C150.214 200.981 150.273 201.009 150.336 201.009C150.45 201.009 150.556 200.965 150.657 200.877C150.959 200.632 151.296 200.217 151.667 199.632L152.035 199.802C151.437 200.758 150.849 201.44 150.27 201.849C149.874 202.126 149.453 202.264 149.006 202.264C148.591 202.264 148.261 202.154 148.016 201.934C147.77 201.708 147.648 201.437 147.648 201.123C147.648 200.89 147.723 200.516 147.874 200L150.421 191.301C150.56 190.823 150.629 190.506 150.629 190.349C150.629 190.198 150.563 190.078 150.431 189.99C150.255 189.864 149.987 189.811 149.629 189.83L149.733 189.471L152.912 188.915H153.478ZM161.997 193.386L160.167 199.66L159.978 200.424C159.959 200.519 159.95 200.588 159.95 200.632C159.95 200.707 159.975 200.774 160.025 200.83C160.082 200.887 160.139 200.915 160.195 200.915C160.327 200.915 160.51 200.814 160.742 200.613C160.837 200.531 161.063 200.242 161.422 199.745L161.752 199.915C161.305 200.733 160.827 201.33 160.318 201.708C159.815 202.079 159.271 202.264 158.686 202.264C158.327 202.264 158.054 202.173 157.865 201.991C157.676 201.802 157.582 201.566 157.582 201.283C157.582 201.038 157.683 200.582 157.884 199.915L158.11 199.151C157.381 200.402 156.679 201.289 156.006 201.811C155.616 202.113 155.201 202.264 154.761 202.264C154.182 202.264 153.764 202.028 153.506 201.557C153.248 201.079 153.12 200.541 153.12 199.943C153.12 199.056 153.39 198.041 153.931 196.896C154.472 195.745 155.182 194.82 156.063 194.122C156.786 193.544 157.466 193.254 158.101 193.254C158.453 193.254 158.736 193.358 158.95 193.566C159.164 193.767 159.321 194.138 159.422 194.679L159.761 193.518L161.997 193.386ZM158.978 195.179C158.978 194.669 158.9 194.302 158.742 194.075C158.629 193.918 158.475 193.839 158.28 193.839C158.085 193.839 157.884 193.934 157.676 194.122C157.255 194.512 156.799 195.305 156.308 196.5C155.824 197.688 155.582 198.717 155.582 199.585C155.582 199.918 155.635 200.16 155.742 200.311C155.855 200.456 155.978 200.528 156.11 200.528C156.393 200.528 156.679 200.365 156.969 200.038C157.384 199.572 157.758 199.003 158.091 198.33C158.683 197.148 158.978 196.097 158.978 195.179ZM169.592 193.254L169.177 196.17H168.828C168.777 195.415 168.545 194.82 168.13 194.386C167.721 193.952 167.281 193.735 166.809 193.735C166.519 193.735 166.28 193.82 166.092 193.99C165.903 194.16 165.809 194.364 165.809 194.603C165.809 194.805 165.85 194.993 165.931 195.17C166.013 195.346 166.196 195.585 166.479 195.887C167.472 196.956 168.076 197.692 168.29 198.094C168.504 198.497 168.611 198.928 168.611 199.387C168.611 199.884 168.485 200.355 168.233 200.802C167.982 201.242 167.604 201.597 167.101 201.868C166.604 202.132 166.085 202.264 165.545 202.264C165.18 202.264 164.73 202.192 164.195 202.047C163.843 201.947 163.579 201.896 163.403 201.896C163.246 201.896 163.123 201.921 163.035 201.972C162.947 202.016 162.849 202.113 162.743 202.264H162.394L162.856 199.123H163.158C163.378 199.884 163.582 200.428 163.771 200.755C163.966 201.075 164.224 201.333 164.545 201.528C164.865 201.717 165.174 201.811 165.469 201.811C165.815 201.811 166.101 201.704 166.328 201.491C166.554 201.27 166.667 201.009 166.667 200.707C166.667 200.412 166.592 200.126 166.441 199.849C166.296 199.572 165.957 199.141 165.422 198.556C164.686 197.758 164.202 197.141 163.969 196.707C163.806 196.393 163.724 196.034 163.724 195.632C163.724 194.953 163.969 194.386 164.46 193.934C164.957 193.481 165.652 193.254 166.545 193.254C166.935 193.254 167.413 193.324 167.979 193.462C168.262 193.531 168.488 193.566 168.658 193.566C168.903 193.566 169.101 193.462 169.252 193.254H169.592ZM177.121 193.254L176.705 196.17H176.356C176.306 195.415 176.073 194.82 175.658 194.386C175.249 193.952 174.809 193.735 174.337 193.735C174.048 193.735 173.809 193.82 173.62 193.99C173.432 194.16 173.337 194.364 173.337 194.603C173.337 194.805 173.378 194.993 173.46 195.17C173.542 195.346 173.724 195.585 174.007 195.887C175.001 196.956 175.605 197.692 175.819 198.094C176.032 198.497 176.139 198.928 176.139 199.387C176.139 199.884 176.014 200.355 175.762 200.802C175.51 201.242 175.133 201.597 174.63 201.868C174.133 202.132 173.614 202.264 173.073 202.264C172.708 202.264 172.259 202.192 171.724 202.047C171.372 201.947 171.108 201.896 170.932 201.896C170.774 201.896 170.652 201.921 170.564 201.972C170.476 202.016 170.378 202.113 170.271 202.264H169.922L170.384 199.123H170.686C170.906 199.884 171.111 200.428 171.3 200.755C171.495 201.075 171.752 201.333 172.073 201.528C172.394 201.717 172.702 201.811 172.998 201.811C173.344 201.811 173.63 201.704 173.856 201.491C174.083 201.27 174.196 201.009 174.196 200.707C174.196 200.412 174.12 200.126 173.969 199.849C173.825 199.572 173.485 199.141 172.951 198.556C172.215 197.758 171.73 197.141 171.498 196.707C171.334 196.393 171.252 196.034 171.252 195.632C171.252 194.953 171.498 194.386 171.988 193.934C172.485 193.481 173.18 193.254 174.073 193.254C174.463 193.254 174.941 193.324 175.507 193.462C175.79 193.531 176.017 193.566 176.187 193.566C176.432 193.566 176.63 193.462 176.781 193.254H177.121Z" fill="#0192D5"/>
<path d="M95 178.187C110.5 166.687 156.5 124.187 168.5 100.687C154 100.687 121.255 102.719 96.5 91.6889C77 83 61.1667 87.8556 55.5 91.6889C85.9 92.8889 100 106.686 109.5 110.687C119 114.689 133.833 117.854 142.5 117.189C132 126.689 97.5 171.189 95 171.189C92.3167 171.189 58.8333 132.522 41.5 114.689C53.9 113.089 70.3333 120.689 77 124.689C105.4 140.29 118 130.189 123.5 124.689C119 126.855 103.4 127.087 77 110.687C50.6 94.2872 29.3333 100.187 22 105.187C34 128.187 77 169.687 95 178.187Z" fill="#0192D5"/>
<circle cx="85.5" cy="47" r="9.5" fill="#ED1C22"/>
<path d="M26.8365 92.2653C-15.1484 10.2888 54.8452 -7.20926 86.8365 22.2653C76.3388 6.27381 39.8438 -14.6355 11.8434 14.7907C2.17673 24.9579 -10.6566 55.9921 15.3434 98.7921L26.8365 92.2653Z" fill="#00A44E"/>
<path d="M169.988 14.7907C141.988 -14.6355 105.493 6.27381 94.9951 22.2653C121.378 -2.04173 171.996 6 167.56 55L166.5 73.5L179.992 72C186.498 42.5 177.517 22.709 169.988 14.7907Z" fill="#00A44E"/>
<path d="M172.5 90.5518L180 71.9971C123.6 78.3948 118.333 69.3314 123 64C124.667 63.1657 131.1 62.0524 143.5 64.0547C155.9 66.057 162.333 60.2204 164 57.0518C154 64.5518 121.5 42.0565 111.5 49.5518C99.0521 58.8819 77 60.0518 57.5 61.5518C41.9 62.7518 31.3333 74.0518 28 79.5518C38.1667 73.7185 66.6 66.0518 99 82.0518C131.4 98.0518 161.667 94.3851 172.5 90.5518Z" fill="#ED1C22"/>
</svg>
